#!OML:ASF F:\VICON\USERDATA\INSTALL\rory3\rory3.ASF
:FULLY-SPECIFIED
:DEGREES
701
root 1.8825 16.8797 8.33152 -2.71305 29.0926 3.56336
lowerback 6.10266 -4.99123 -4.98025
upperback 0.320499 -6.93472 1.94564
thorax -2.24164 -3.4062 5.29715
lowerneck -1.99767 -10.4762 -16.6039
upperneck 15.269 -15.8028 16.6328
head 7.67219 -7.58818 6.7985
rclavicle 3.97954e-014 1.11319e-014
rhumerus -28.5011 -12.3639 -43.5809
rradius 65.1675
rwrist -17.5138
rhand -14.5083 21.7661
rfingers 7.12502
rthumb 11.639 -7.89059
lclavicle 3.97954e-014 1.11319e-014
lhumerus 0.672244 38.4133 72.1116
lradius 30.9568
lwrist 4.29487
lhand -6.08245 41.1855
lfingers 7.12502
lthumb 19.7531 -289.798
rfemur -31.6282 1.77024 26.5731
rtibia 35.7637
rfoot 7.70815 8.02035
rtoes 30.1936
lfemur 0.793036 -4.12903 -29.4807
ltibia 41.9622
lfoot -22.954 -11.6529
ltoes 15.9998
702
root 1.82619 16.8958 8.32259 -2.32026 28.8173 3.69324
lowerback 6.02631 -4.72613 -5.13243
upperback 0.195937 -6.5937 1.84159
thorax -2.36639 -3.22716 5.2565
lowerneck -1.21993 -10.4243 -16.8522
upperneck 14.6043 -15.8386 17.2374
head 7.39817 -7.63494 7.07848
rclavicle 2.8514e-014 9.54166e-015
rhumerus -28.1425 -11.9843 -43.5701
rradius 65.7988
rwrist -18.3067
rhand -14.9644 21.5693
rfingers 7.12502
rthumb 11.1991 -8.11178
lclavicle 2.8514e-014 9.54166e-015
lhumerus -0.719655 38.9129 69.0032
lradius 31.2751
lwrist 6.22878
lhand -3.64425 39.4719
lfingers 7.12502
lthumb 22.0955 -291.771
rfemur -31.9912 1.7795 26.5348
rtibia 35.5184
rfoot 8.05812 8.24586
rtoes 29.7194
lfemur 0.595918 -4.15868 -29.4587
ltibia 41.4691
lfoot -23.5852 -10.6397
ltoes 12.9541
703
root 1.77057 16.9065 8.30745 -1.95689 28.4218 3.71429
lowerback 6.10136 -4.44884 -5.18149
upperback -0.0409873 -6.2377 1.7833
thorax -2.70062 -3.03126 5.22674
lowerneck -0.708789 -10.4006 -17.0204
upperneck 14.231 -15.8816 17.6165
head 7.24241 -7.6769 7.25558
rclavicle 4.7932e-014 -1.19271e-014
rhumerus -28.2474 -11.131 -43.45
rradius 66.7342
rwrist -19.2161
rhand -15.1313 21.3101
rfingers 7.12502
rthumb 11.0382 -8.37968
lclavicle 4.7932e-014 -1.19271e-014
lhumerus -2.43915 39.0212 65.6755
lradius 31.5406
lwrist 8.03549
lhand -3.22303 38.8018
lfingers 7.12502
lthumb 22.4999 -292.489
rfemur -32.4084 2.10732 26.4965
rtibia 35.2427
rfoot 8.18054 8.37476
rtoes 28.5824
lfemur 0.338653 -4.15043 -29.3419
ltibia 40.9821
lfoot -23.8508 -10.14
ltoes 12.5905
704
root 1.72104 16.9174 8.28706 -1.78766 27.9888 3.56201
lowerback 6.15936 -4.17446 -5.07734
upperback 0.0688076 -5.86353 1.82129
thorax -2.67185 -2.84902 5.18616
lowerneck -1.31517 -10.6258 -17.1187
upperneck 14.1461 -16.1242 17.7673
head 7.39373 -7.75832 7.25354
rclavicle 2.91841e-014 3.18055e-015
rhumerus -27.7119 -10.864 -43.3925
rradius 67.3426
rwrist -19.9992
rhand -15.0864 21.2904
rfingers 7.12502
rthumb 11.0815 -8.39703
lclavicle 2.91841e-014 3.18055e-015
lhumerus -3.12188 40.0023 63.1644
lradius 31.4182
lwrist 8.84348
lhand -4.11401 38.8312
lfingers 7.12502
lthumb 21.6445 -292.359
rfemur -32.692 1.97125 26.7003
rtibia 34.9761
rfoot 8.12804 8.9732
rtoes 26.1581
lfemur 0.20712 -4.10841 -29.0937
ltibia 40.4747
lfoot -23.8652 -10.1005
ltoes 13.9317
705
root 1.67266 16.938 8.27427 -1.66607 27.6495 3.44671
lowerback 6.13501 -3.95385 -5.02746
upperback 0.298964 -5.55985 1.82392
thorax -2.461 -2.71043 5.12847
lowerneck -1.65098 -10.8074 -17.2737
upperneck 13.7279 -16.3338 18.1607
head 7.41139 -7.83379 7.35998
rclavicle 2.17669e-014 1.59028e-015
rhumerus -26.9245 -10.8523 -43.532
rradius 67.7734
rwrist -20.645
rhand -15.2585 21.2185
rfingers 7.12502
rthumb 10.9154 -8.47778
lclavicle 2.17669e-014 1.59028e-015
lhumerus -3.93795 40.3902 60.56
lradius 31.4845
lwrist 9.66107
lhand -4.42539 38.8778
lfingers 7.12502
lthumb 21.3454 -292.278
rfemur -32.8631 1.51635 26.9162
rtibia 34.7557
rfoot 7.95745 9.67486
rtoes 23.0183
lfemur 0.157942 -4.01046 -28.8376
ltibia 39.9477
lfoot -24.0679 -10.1605
ltoes 14.7411
706
root 1.62358 16.9511 8.26654 -1.37028 27.3137 3.62226
lowerback 6.08214 -3.73094 -5.1877
upperback 0.383635 -5.27375 1.6717
thorax -2.37877 -2.57088 5.03414
lowerneck -1.33975 -10.8431 -17.479
upperneck 13.1238 -16.4398 18.8054
head 7.26209 -7.88967 7.61281
rclavicle 4.03409e-014 -2.38542e-015
rhumerus -26.394 -10.8473 -43.744
rradius 68.1479
rwrist -21.1739
rhand -15.1405 21.0352
rfingers 7.12502
rthumb 11.0293 -8.65505
lclavicle 4.03409e-014 -2.38542e-015
lhumerus -5.42391 39.7124 57.4072
lradius 31.6903
lwrist 10.5376
lhand -4.55731 38.8533
lfingers 7.12502
lthumb 21.2187 -292.288
rfemur -33.1004 1.35594 26.74
rtibia 34.5644
rfoot 7.57679 9.99871
rtoes 19.3169
lfemur 0.0678479 -3.932 -28.8651
ltibia 39.4483
lfoot -24.4066 -10.0465
ltoes 14.8668
